<svg width="20" height="20" viewBox="0 0 20 20" fill="none" xmlns="http://www.w3.org/2000/svg">
<path d="M14.1667 14.1667H15.8333C16.2754 14.1667 16.6993 13.9911 17.0118 13.6785C17.3244 13.366 17.5 12.942 17.5 12.5V9.16667C17.5 8.72464 17.3244 8.30072 17.0118 7.98816C16.6993 7.67559 16.2754 7.5 15.8333 7.5H4.16667C3.72464 7.5 3.30072 7.67559 2.98816 7.98816C2.67559 8.30072 2.5 8.72464 2.5 9.16667V12.5C2.5 12.942 2.67559 13.366 2.98816 13.6785C3.30072 13.9911 3.72464 14.1667 4.16667 14.1667H5.83333M7.5 17.5H12.5C12.942 17.5 13.366 17.3244 13.6785 17.0118C13.9911 16.6993 14.1667 16.2754 14.1667 15.8333V12.5C14.1667 12.058 13.9911 11.634 13.6785 11.3215C13.366 11.0089 12.942 10.8333 12.5 10.8333H7.5C7.05797 10.8333 6.63405 11.0089 6.32149 11.3215C6.00893 11.634 5.83333 12.058 5.83333 12.5V15.8333C5.83333 16.2754 6.00893 16.6993 6.32149 17.0118C6.63405 17.3244 7.05797 17.5 7.5 17.5ZM14.1667 7.5V4.16667C14.1667 3.72464 13.9911 3.30072 13.6785 2.98816C13.366 2.67559 12.942 2.5 12.5 2.5H7.5C7.05797 2.5 6.63405 2.67559 6.32149 2.98816C6.00893 3.30072 5.83333 3.72464 5.83333 4.16667V7.5H14.1667Z" stroke="#344054" stroke-width="2" stroke-linecap="round" stroke-linejoin="round"/>
</svg>
