<svg width="16" height="16" viewBox="0 0 16 16" fill="none" xmlns="http://www.w3.org/2000/svg">
<path fill-rule="evenodd" clip-rule="evenodd" d="M4.23441 5.83444C4.38443 5.68446 4.58788 5.60021 4.80001 5.60021C5.01214 5.60021 5.21559 5.68446 5.36561 5.83444L8.00001 8.46884L10.6344 5.83444C10.7082 5.75803 10.7965 5.69709 10.8941 5.65516C10.9917 5.61323 11.0967 5.59116 11.2029 5.59024C11.3091 5.58932 11.4145 5.60956 11.5128 5.64978C11.6111 5.69001 11.7004 5.74941 11.7755 5.82452C11.8506 5.89964 11.91 5.98896 11.9503 6.08728C11.9905 6.18559 12.0107 6.29094 12.0098 6.39716C12.0089 6.50339 11.9868 6.60836 11.9449 6.70596C11.903 6.80357 11.842 6.89184 11.7656 6.96564L8.56561 10.1656C8.41559 10.3156 8.21214 10.3999 8.00001 10.3999C7.78788 10.3999 7.58443 10.3156 7.43441 10.1656L4.23441 6.96564C4.08444 6.81562 4.00018 6.61217 4.00018 6.40004C4.00018 6.18791 4.08444 5.98446 4.23441 5.83444Z" fill="#345BA9"/>
</svg>
