<svg width="24" height="24" viewBox="0 0 24 24" fill="none" xmlns="http://www.w3.org/2000/svg">
<path d="M12.6667 14.6667H12V12H11.3333M12 9.33333H12.0067M18 12C18 12.7879 17.8448 13.5681 17.5433 14.2961C17.2417 15.0241 16.7998 15.6855 16.2426 16.2426C15.6855 16.7998 15.0241 17.2417 14.2961 17.5433C13.5681 17.8448 12.7879 18 12 18C11.2121 18 10.4319 17.8448 9.7039 17.5433C8.97595 17.2417 8.31451 16.7998 7.75736 16.2426C7.20021 15.6855 6.75825 15.0241 6.45672 14.2961C6.15519 13.5681 6 12.7879 6 12C6 10.4087 6.63214 8.88258 7.75736 7.75736C8.88258 6.63214 10.4087 6 12 6C13.5913 6 15.1174 6.63214 16.2426 7.75736C17.3679 8.88258 18 10.4087 18 12Z" stroke="#344054" stroke-width="2" stroke-linecap="round" stroke-linejoin="round"/>
</svg>
