<svg width="16" height="16" viewBox="0 0 16 16" fill="none" xmlns="http://www.w3.org/2000/svg">
<g clip-path="url(#clip0_2005_256)">
<mask id="mask0_2005_256" style="mask-type:alpha" maskUnits="userSpaceOnUse" x="0" y="0" width="16" height="16">
<rect width="16" height="16" fill="#D9D9D9"/>
</mask>
<g mask="url(#mask0_2005_256)">
<path d="M8.0094 12.7985L7.11014 10.8333L5.1449 9.94345L7.11014 9.05358L8.0094 7.08837L8.89867 9.05123L10.8551 9.94345L8.89867 10.8357L8.0094 12.7985ZM3.44637 14.9869C2.95409 14.9869 2.53658 14.8156 2.19382 14.4728C1.85107 14.13 1.67969 13.7125 1.67969 13.2203V4.11302C1.67969 3.62074 1.85107 3.20322 2.19382 2.86047C2.53658 2.51771 2.95409 2.34633 3.44637 2.34633H3.99999V1.013H5.55V2.34633H10.45V1.013H12V2.34633H12.5536C13.0459 2.34633 13.4634 2.51771 13.8062 2.86047C14.1489 3.20322 14.3203 3.62074 14.3203 4.11302V13.2203C14.3203 13.7125 14.1489 14.13 13.8062 14.4728C13.4634 14.8156 13.0459 14.9869 12.5536 14.9869H3.44637ZM3.08413 13.2203H12.6841V6.66663H3.08413V13.2203ZM3.08413 5.3333H12.6841V4.11302H3.08413V5.3333Z" fill="#345BA9"/>
</g>
</g>
<defs>
<clipPath id="clip0_2005_256">
<rect width="16" height="16" fill="white"/>
</clipPath>
</defs>
</svg>
