<svg width="16" height="16" viewBox="0 0 16 16" fill="none" xmlns="http://www.w3.org/2000/svg">
<path d="M7.99997 14.0001C9.4145 14.0001 10.7711 13.4382 11.7713 12.438C12.2673 11.9433 12.6606 11.3554 12.9287 10.7082C13.1967 10.061 13.3342 9.36719 13.3333 8.66667C13.3342 7.96609 13.1965 7.27226 12.9284 6.62504C12.6602 5.97783 12.2667 5.39 11.7706 4.89533C10.7266 3.85133 9.33331 3.33333 7.99064 2C6.33331 3.33333 5.99997 5.33333 5.99997 6.66667C4.66664 6 4.22864 4.89533 4.22864 4.89533C3.22842 5.89555 2.6665 7.25214 2.6665 8.66667C2.6665 10.0812 3.22842 11.4378 4.22864 12.438C5.22886 13.4382 6.58545 14.0001 7.99997 14.0001Z" stroke="#FAA31B" stroke-width="2" stroke-linecap="round" stroke-linejoin="round"/>
<path d="M7.41846 11.2468C7.10417 11.1512 6.81826 10.9796 6.586 10.7473C6.19533 10.3573 6 9.84531 6 9.33331H7.33333L8.01 7.33331C8.3385 7.33489 8.66156 7.41736 8.95062 7.57344C9.23969 7.72951 9.48585 7.95439 9.66737 8.2282C9.84888 8.502 9.96016 8.8163 9.99136 9.14333C10.0226 9.47035 9.97273 9.80002 9.84627 10.1032C9.71981 10.4064 9.52061 10.6738 9.26628 10.8817C9.01194 11.0896 8.71031 11.2317 8.38803 11.2954C8.06576 11.359 7.73275 11.3423 7.41846 11.2468Z" stroke="#FAA31B" stroke-width="2" stroke-linecap="round" stroke-linejoin="round"/>
</svg>
